<svg width="240" height="203" viewBox="0 0 240 203" fill="none" xmlns="http://www.w3.org/2000/svg">
<path d="M130.731 83.0455L130.731 27.6818C130.731 20.3859 133.268 14.2329 138.368 9.13476C143.468 4.03661 149.624 1.50001 156.923 1.50001L212.308 1.50001C219.607 1.50001 225.763 4.03662 230.863 9.13476C235.963 14.2329 238.5 20.3859 238.5 27.6818L238.5 129.182C238.5 138.977 236.593 148.316 232.78 157.21C228.957 166.127 223.797 173.823 217.305 180.313C210.812 186.803 203.114 191.96 194.193 195.782C185.295 199.594 175.953 201.5 166.154 201.5L156.923 201.5C154.835 201.5 153.049 200.755 151.493 199.2C149.937 197.644 149.192 195.859 149.192 193.773L149.192 175.318C149.192 173.232 149.937 171.447 151.493 169.891C153.049 168.336 154.835 167.591 156.923 167.591L166.154 167.591C176.744 167.591 185.827 163.828 193.32 156.339C200.813 148.849 204.577 139.769 204.577 129.182L204.577 124.568C204.577 120.33 203.076 116.679 200.099 113.703C197.122 110.728 193.47 109.227 189.231 109.227L156.923 109.227C149.624 109.227 143.468 106.691 138.368 101.593C133.268 96.4944 130.731 90.3414 130.731 83.0455ZM1.5 83.0455L1.5 27.6818C1.5 20.3859 4.03732 14.2329 9.13738 9.13475C14.2375 4.0366 20.3931 1.5 27.6923 1.5L83.0769 1.5C90.3761 1.5 96.5318 4.03661 101.632 9.13475C106.732 14.2329 109.269 20.3859 109.269 27.6818L109.269 129.182C109.269 138.977 107.362 148.316 103.549 157.21C99.7261 166.127 94.5667 173.823 88.0742 180.313C81.5817 186.803 73.8829 191.96 64.9622 195.782C56.0645 199.594 46.7224 201.5 36.9231 201.5L27.6923 201.5C25.6046 201.5 23.8185 200.755 22.2624 199.2C20.7063 197.644 19.9615 195.859 19.9615 193.773L19.9615 175.318C19.9615 173.232 20.7063 171.447 22.2624 169.891C23.8185 168.336 25.6046 167.591 27.6923 167.591L36.9231 167.591C47.5133 167.591 56.5966 163.828 64.0893 156.339C71.582 148.849 75.3462 139.769 75.3462 129.182L75.3462 124.568C75.3462 120.33 73.845 116.679 70.8681 113.703C67.8913 110.728 64.2393 109.227 60 109.227L27.6923 109.227C20.3931 109.227 14.2375 106.691 9.13737 101.593C4.03732 96.4944 1.49999 90.3414 1.5 83.0455Z" stroke="#2B2B2B" stroke-width="3"/>
</svg>
